<svg width="297" height="362" viewBox="0 0 297 362" fill="none" xmlns="http://www.w3.org/2000/svg">
<path d="M103.101 1.01953H193.101C199.176 1.01953 204.101 5.9444 204.101 12.0195V23.0195H92.1006V12.0195C92.1006 5.9444 97.0255 1.01953 103.101 1.01953Z" fill="white" stroke="black" stroke-width="2"/>
<path d="M29.6909 352.145V351.12H37.3909C38.5243 351.12 39.0909 350.553 39.0909 349.42V347.395C39.0909 346.445 38.6659 345.886 37.8159 345.72L32.4409 344.62C30.6076 344.253 29.6909 343.028 29.6909 340.945V339.595C29.6909 337.045 30.9659 335.77 33.5159 335.77H39.5659L40.6909 336.645V337.67H33.4909C32.3576 337.67 31.7909 338.236 31.7909 339.37V341.07C31.7909 342.02 32.2159 342.578 33.0659 342.745L38.4409 343.82C40.2743 344.186 41.1909 345.42 41.1909 347.52V349.195C41.1909 351.745 39.9159 353.02 37.3659 353.02H30.8159L29.6909 352.145ZM44.4929 349.27V343.77C44.4929 341.27 45.7429 340.02 48.2429 340.02H53.1429L54.1429 340.77V341.77H48.2429C47.0762 341.77 46.4929 342.353 46.4929 343.52V349.52C46.4929 350.686 47.0762 351.27 48.2429 351.27H54.1429V352.27L53.1429 353.02H48.2429C45.7429 353.02 44.4929 351.77 44.4929 349.27ZM60.3655 353.02C57.8489 353.02 56.5905 351.761 56.5905 349.245C56.5905 346.728 57.8489 345.47 60.3655 345.47H64.9405V343.52C64.9405 342.353 64.3572 341.77 63.1905 341.77H57.8405V340.77L58.8405 340.02H63.1905C65.6905 340.02 66.9405 341.27 66.9405 343.77V353.02H60.3655ZM58.5905 349.52C58.5905 350.686 59.1739 351.27 60.3405 351.27H64.9405V347.095H60.3405C59.1739 347.095 58.5905 347.678 58.5905 348.845V349.52ZM70.8403 353.02V340.02H77.8403C80.3403 340.02 81.5903 341.27 81.5903 343.77V353.02H79.5903V343.52C79.5903 342.353 79.007 341.77 77.8403 341.77H72.8403V353.02H70.8403ZM91.3946 349.27V335.77H93.3946V340.02H98.1446V341.77H93.3946V349.52C93.3946 350.686 93.978 351.27 95.1446 351.27H98.3946V352.27L97.3946 353.02H95.1446C92.6446 353.02 91.3946 351.77 91.3946 349.27ZM101.085 349.27V343.77C101.085 341.27 102.335 340.02 104.835 340.02H108.335C110.835 340.02 112.085 341.27 112.085 343.77V349.27C112.085 351.77 110.835 353.02 108.335 353.02H104.835C102.335 353.02 101.085 351.77 101.085 349.27ZM103.085 349.52C103.085 350.686 103.668 351.27 104.835 351.27H108.335C109.501 351.27 110.085 350.686 110.085 349.52V343.52C110.085 342.353 109.501 341.77 108.335 341.77H104.835C103.668 341.77 103.085 342.353 103.085 343.52V349.52ZM122.14 353.02V335.77H133.39V337.67H124.24V343.77H132.64V345.67H124.24V353.02H122.14ZM135.948 349.27V343.77C135.948 341.27 137.198 340.02 139.698 340.02H143.198C145.698 340.02 146.948 341.27 146.948 343.77V349.27C146.948 351.77 145.698 353.02 143.198 353.02H139.698C137.198 353.02 135.948 351.77 135.948 349.27ZM137.948 349.52C137.948 350.686 138.531 351.27 139.698 351.27H143.198C144.365 351.27 144.948 350.686 144.948 349.52V343.52C144.948 342.353 144.365 341.77 143.198 341.77H139.698C138.531 341.77 137.948 342.353 137.948 343.52V349.52ZM150.648 349.47V334.52H152.648V349.67C152.648 350.82 153.231 351.428 154.398 351.495V353.22C151.898 353.22 150.648 351.97 150.648 349.47ZM157.142 349.47V334.52H159.142V349.67C159.142 350.82 159.725 351.428 160.892 351.495V353.22C158.392 353.22 157.142 351.97 157.142 349.47ZM163.536 349.27V343.77C163.536 341.27 164.786 340.02 167.286 340.02H170.786C173.286 340.02 174.536 341.27 174.536 343.77V349.27C174.536 351.77 173.286 353.02 170.786 353.02H167.286C164.786 353.02 163.536 351.77 163.536 349.27ZM165.536 349.52C165.536 350.686 166.119 351.27 167.286 351.27H170.786C171.953 351.27 172.536 350.686 172.536 349.52V343.52C172.536 342.353 171.953 341.77 170.786 341.77H167.286C166.119 341.77 165.536 342.353 165.536 343.52V349.52ZM176.935 340.37L177.185 340.02H178.835L181.485 351.27H181.835L185.01 340.02H187.285L190.46 351.27H190.81L193.485 340.02H195.11L195.36 340.37L192.31 353.02H189.11L186.135 342.32L183.185 353.02H179.985L176.935 340.37ZM202.47 352.57L208.12 335.77H211.57L217.22 352.57L216.92 353.02H215.195L213.77 348.67H205.92L204.495 353.02H202.77L202.47 352.57ZM206.545 346.77H213.145L210.145 337.67H209.545L206.545 346.77ZM219.617 349.47V334.52H221.617V349.67C221.617 350.82 222.201 351.428 223.367 351.495V353.22C220.867 353.22 219.617 351.97 219.617 349.47ZM226.011 349.27V343.77C226.011 341.27 227.261 340.02 229.761 340.02H233.261C235.761 340.02 237.011 341.27 237.011 343.77V349.27C237.011 351.77 235.761 353.02 233.261 353.02H229.761C227.261 353.02 226.011 351.77 226.011 349.27ZM228.011 349.52C228.011 350.686 228.595 351.27 229.761 351.27H233.261C234.428 351.27 235.011 350.686 235.011 349.52V343.52C235.011 342.353 234.428 341.77 233.261 341.77H229.761C228.595 341.77 228.011 342.353 228.011 343.52V349.52ZM240.811 353.02V340.02H247.811C250.311 340.02 251.561 341.27 251.561 343.77V353.02H249.561V343.52C249.561 342.353 248.978 341.77 247.811 341.77H242.811V353.02H240.811ZM255.259 349.27V343.77C255.259 341.27 256.509 340.02 259.009 340.02H266.009V354.27C266.009 356.77 264.759 358.02 262.259 358.02H257.259L256.259 357.27V356.27H262.259C263.426 356.27 264.009 355.686 264.009 354.52V353.02H259.009C256.509 353.02 255.259 351.77 255.259 349.27ZM257.259 349.52C257.259 350.686 257.843 351.27 259.009 351.27H264.009V341.77H259.009C257.843 341.77 257.259 342.353 257.259 343.52V349.52Z" fill="black"/>
<rect x="1.10059" y="20.0195" width="294" height="294" fill="white" stroke="#0F3B50" stroke-width="2"/>
</svg>
